<svg height="512" viewBox="0 0 512 512" width="512" xmlns="http://www.w3.org/2000/svg" xmlns:xlink="http://www.w3.org/1999/xlink"><linearGradient id="a" gradientUnits="userSpaceOnUse" x1="-40.572" x2="473.281" y1="456.573" y2="-57.28" data-name="New Gradient Swatch 1"><stop offset="0" stop-color="#003f8a"/><stop offset=".518" stop-color="#00d7df"/><stop offset="1" stop-color="#006df0"/></linearGradient><path d="m496 64h-480a8 8 0 0 0 -8 8v48a8 8 0 0 0 8 8h52.57l147.43 155.19v124.81a8.009 8.009 0 0 0 3.2 6.4l64 48a7.982 7.982 0 0 0 4.8 1.6 7.985 7.985 0 0 0 8-8v-172.81l147.43-155.19h52.57a8 8 0 0 0 8-8v-48a8 8 0 0 0 -8-8zm-216 376-48-36v-76h48zm2.2-165.51a8.018 8.018 0 0 0 -2.2 5.51v32h-48v-32a8.018 8.018 0 0 0 -2.2-5.51l-139.17-146.49h330.74zm205.8-162.49h-464v-32h464z" fill="url(#a)"/></svg>