<svg height="512" viewBox="0 0 512 512" width="512" xmlns="http://www.w3.org/2000/svg" xmlns:xlink="http://www.w3.org/1999/xlink"><linearGradient id="a" gradientUnits="userSpaceOnUse" x1="14.2" x2="540.192" y1="482.375" y2="-43.617" data-name="New Gradient Swatch 1"><stop offset="0" stop-color="#003f8a"/><stop offset=".518" stop-color="#00d7df"/><stop offset="1" stop-color="#006df0"/></linearGradient><linearGradient id="b" x1="-22.088" x2="503.905" xlink:href="#a" y1="446.088" y2="-79.905"/><g><path d="m416 168c0-88.22-71.78-160-160-160s-160 71.78-160 160c0 80.07 59.12 146.59 136 158.2v17.8h-8a8 8 0 0 0 -8 8v144a8 8 0 0 0 8 8h64a8 8 0 0 0 8-8v-144a8 8 0 0 0 -8-8h-8v-17.8c76.88-11.61 136-78.13 136-158.2zm-136 320h-48v-128h48zm-32-144v-16h16v16zm8-32c-79.4 0-144-64.6-144-144s64.6-144 144-144 144 64.6 144 144-64.6 144-144 144z" fill="url(#a)"/><g fill="url(#b)"><path d="m384 168a128 128 0 1 0 -128 128 128.145 128.145 0 0 0 128-128zm-239.711 8h7.711a8 8 0 0 0 0-16h-7.711a112.168 112.168 0 0 1 103.711-103.711v7.711a8 8 0 0 0 16 0v-7.711a112.168 112.168 0 0 1 103.711 103.711h-7.711a8 8 0 0 0 0 16h7.711a112.168 112.168 0 0 1 -103.711 103.711v-7.711a8 8 0 0 0 -16 0v7.711a112.168 112.168 0 0 1 -103.711-103.711z"/><path d="m256 192a23.856 23.856 0 0 0 10.34-2.345l24 24a8 8 0 1 0 11.314-11.314l-24-24a23.989 23.989 0 0 0 -13.775-33.006 8.043 8.043 0 0 0 .121-1.335v-56a8 8 0 0 0 -16 0v56a8.043 8.043 0 0 0 .12 1.335 24 24 0 0 0 7.88 46.665zm0-32a8 8 0 1 1 -8 8 8.009 8.009 0 0 1 8-8z"/></g></g></svg>